<?xml version="1.0" standalone="no"?>
<!DOCTYPE svg PUBLIC "-//W3C//DTD SVG 20010904//EN"
 "http://www.w3.org/TR/2001/REC-SVG-20010904/DTD/svg10.dtd">
<svg version="1.0" xmlns="http://www.w3.org/2000/svg"
 width="1280.000000pt" height="876.000000pt" viewBox="0 0 1280.000000 876.000000"
 preserveAspectRatio="xMidYMid meet">
<metadata>
Created by potrace 1.15, written by Peter Selinger 2001-2017
</metadata>
<g transform="translate(0.000000,876.000000) scale(0.100000,-0.100000)"
fill="#000000" stroke="none">
<path d="M8630 8735 c-91 -12 -212 -28 -270 -34 -126 -15 -252 -41 -420 -88
-96 -27 -186 -64 -385 -159 -199 -95 -273 -125 -316 -130 -52 -6 -56 -5 -72
20 -22 33 -30 33 -200 0 l-138 -27 -95 26 c-52 15 -135 48 -184 72 -62 31
-102 45 -130 45 -43 0 -45 -2 -54 -60 l-6 -35 157 -84 c141 -75 179 -99 169
-108 -2 -2 -93 17 -204 42 -177 40 -206 45 -242 35 -41 -11 -80 -41 -80 -60 0
-6 17 -28 38 -50 35 -37 46 -41 232 -90 107 -29 199 -56 204 -60 5 -5 -92 -59
-216 -121 -223 -111 -225 -112 -235 -151 -10 -39 -10 -39 29 -59 l40 -20 150
50 c82 28 152 51 155 51 3 0 -19 -21 -48 -47 -108 -95 -219 -207 -219 -220 0
-8 7 -28 16 -45 14 -27 19 -30 49 -25 56 9 243 121 355 212 l105 85 72 0 c40
0 73 -3 73 -7 0 -4 -32 -56 -71 -115 l-72 -108 6 -58 c5 -59 33 -128 61 -151
40 -34 110 45 122 137 6 56 9 59 110 162 l103 106 38 108 38 109 183 52 c237
68 450 101 737 115 121 5 294 15 385 20 91 6 185 11 209 13 l43 2 34 -93 c29
-78 61 -133 194 -328 88 -129 160 -237 160 -240 0 -2 -6 -4 -14 -4 -8 0 -50
-49 -95 -109 l-81 -109 -133 -57 c-149 -64 -213 -108 -712 -495 -318 -246
-630 -473 -892 -648 -161 -108 -186 -121 -234 -126 -30 -3 -103 -11 -164 -17
-99 -10 -224 -42 -279 -71 -82 -44 -210 -155 -287 -249 -131 -160 -181 -261
-248 -506 l-56 -204 -245 -142 c-187 -109 -277 -168 -379 -250 -159 -127 -217
-190 -444 -481 -164 -210 -177 -223 -312 -332 -139 -111 -144 -114 -331 -194
-104 -45 -247 -114 -319 -154 -71 -41 -186 -102 -255 -136 -183 -91 -202 -107
-277 -224 -45 -69 -106 -143 -192 -231 -69 -71 -219 -232 -333 -356 -113 -125
-239 -253 -280 -286 -98 -80 -226 -163 -252 -163 -11 0 -74 -5 -139 -10 -135
-10 -307 -60 -374 -109 -35 -25 -42 -39 -67 -121 l-29 -93 17 -101 c11 -69 16
-161 16 -291 l0 -190 -54 -240 c-41 -182 -51 -244 -43 -255 8 -11 8 -12 0 -5
-7 6 -67 91 -136 190 -102 150 -134 188 -187 228 -34 26 -66 47 -71 47 -4 0
-57 -58 -117 -128 l-110 -128 -32 -179 c-18 -99 -35 -183 -39 -187 -3 -3 -161
-11 -351 -17 -190 -6 -427 -14 -527 -18 l-183 -6 0 -135 0 -134 253 6 c138 4
470 11 737 16 518 10 1537 30 1710 33 l105 2 -1 25 c-1 14 -5 82 -9 153 l-7
127 -192 -5 c-105 -3 -221 -8 -258 -10 l-68 -5 0 37 c0 26 33 106 118 282 65
135 136 289 157 341 38 94 40 97 112 150 40 30 73 58 73 62 0 5 -9 26 -20 48
l-20 39 73 62 c39 33 104 96 142 140 58 65 94 94 210 166 77 48 213 142 302
209 143 109 186 135 383 234 241 121 364 203 618 414 89 75 169 131 245 173
100 55 118 62 169 63 102 0 237 72 363 192 70 66 89 79 150 98 215 67 265 85
326 116 68 34 576 368 909 598 96 66 230 152 296 191 169 99 160 101 294 -77
l105 -139 235 -157 c167 -113 295 -189 445 -266 116 -60 214 -112 219 -117 6
-5 -4 -9 -25 -9 -60 0 -254 -39 -331 -66 -91 -32 -216 -99 -298 -160 -127 -93
-308 -160 -940 -345 -36 -10 -117 -28 -180 -40 -63 -11 -125 -23 -137 -26 -22
-5 -23 -2 -23 51 0 31 -2 56 -5 56 -2 0 -28 -14 -57 -31 -29 -17 -125 -67
-213 -111 -88 -44 -185 -98 -216 -119 l-57 -38 27 -93 c60 -206 75 -233 178
-331 110 -106 123 -130 216 -397 35 -102 84 -238 108 -304 l44 -118 152 -144
c149 -141 153 -144 197 -144 l45 0 43 73 c53 88 68 121 68 151 0 38 -39 139
-81 212 l-41 69 2 158 c1 142 4 173 37 315 19 86 38 170 42 186 12 53 69 80
287 140 l201 55 354 10 c293 8 382 14 519 35 268 41 570 111 830 191 41 13
120 31 175 40 95 17 104 20 185 78 126 89 126 89 165 207 l36 107 -9 121 -8
120 -65 113 c-36 63 -98 193 -139 289 -41 96 -91 200 -111 230 -20 31 -57 100
-83 154 -66 143 -140 268 -193 326 -48 53 -149 138 -244 206 -64 45 -515 552
-502 564 4 4 33 15 63 25 30 10 122 51 204 92 160 80 462 189 624 224 78 18
116 34 240 104 147 83 147 83 287 108 105 19 184 42 318 91 166 61 186 72 322
165 80 55 145 96 145 90 0 -20 242 -431 319 -542 53 -75 112 -180 170 -299
l88 -183 143 -114 c153 -122 227 -161 304 -161 40 0 48 4 84 46 23 25 56 82
76 131 20 48 76 150 125 227 81 131 251 444 368 681 33 65 60 140 78 213 26
106 31 118 81 176 44 51 69 70 146 108 141 70 172 102 293 306 94 159 103 179
91 197 -7 11 -23 21 -35 23 -18 3 -11 13 50 70 62 59 72 73 80 116 9 49 0 76
-24 76 -6 0 -36 -24 -67 -54 -47 -45 -124 -96 -145 -96 -3 0 19 33 48 73 83
113 159 244 155 270 -4 28 -39 34 -62 11 -9 -9 -62 -68 -118 -130 -55 -63
-103 -113 -105 -111 -2 3 17 77 42 166 26 88 44 169 40 180 -20 64 -81 9 -124
-112 -17 -48 -37 -100 -45 -115 -18 -35 -143 -141 -221 -188 -33 -19 -70 -45
-82 -56 -26 -24 -49 -91 -58 -168 -4 -30 -17 -100 -30 -155 -12 -55 -26 -121
-29 -146 -6 -41 -11 -48 -44 -63 -32 -15 -54 -45 -157 -212 -123 -200 -222
-334 -325 -439 -32 -33 -66 -79 -75 -102 l-17 -42 -33 16 c-30 14 -35 23 -40
62 -30 222 -57 290 -157 396 l-80 85 -9 102 c-5 57 -14 127 -20 156 l-11 53
40 37 c23 22 42 51 47 70 5 26 10 32 23 26 10 -4 35 -8 57 -8 36 -1 40 1 43
27 3 22 8 27 32 27 23 0 34 8 53 40 l23 39 26 -29 c63 -72 139 1 153 147 4 32
18 83 31 113 23 50 32 59 90 89 74 38 98 71 140 192 14 41 31 77 37 81 22 14
52 8 90 -18 21 -14 40 -24 42 -22 2 2 12 42 23 88 16 77 17 95 6 185 -24 187
-98 350 -209 460 -54 54 -95 83 -180 128 -60 31 -153 82 -205 112 -168 98
-291 123 -438 90 -113 -26 -176 -68 -267 -179 -44 -53 -112 -123 -151 -154
-120 -97 -141 -127 -205 -297 -32 -84 -38 -96 -44 -74 -9 38 -153 176 -227
218 -59 35 -67 44 -135 156 -129 214 -145 235 -237 317 -50 44 -170 142 -266
216 -96 75 -225 184 -286 244 l-110 108 -100 -1 c-54 -1 -173 -11 -264 -24z"/>
</g>
</svg>
