<?xml version="1.0" encoding="UTF-8" standalone="no"?>
<svg
   width="83"
   height="30"
   version="1.1"
   id="svg2"
   sodipodi:docname="donate.svg"
   inkscape:version="1.3 (0e150ed6c4, 2023-07-21)"
   xmlns:inkscape="http://www.inkscape.org/namespaces/inkscape"
   xmlns:sodipodi="http://sodipodi.sourceforge.net/DTD/sodipodi-0.dtd"
   xmlns="http://www.w3.org/2000/svg"
   xmlns:svg="http://www.w3.org/2000/svg">
  <defs
     id="defs2" />
  <sodipodi:namedview
     id="namedview2"
     pagecolor="#ffffff"
     bordercolor="#666666"
     borderopacity="1.0"
     inkscape:showpageshadow="2"
     inkscape:pageopacity="0.0"
     inkscape:pagecheckerboard="0"
     inkscape:deskcolor="#d1d1d1"
     inkscape:zoom="12.46988"
     inkscape:cx="41.5"
     inkscape:cy="22.41401"
     inkscape:window-width="1920"
     inkscape:window-height="1011"
     inkscape:window-x="0"
     inkscape:window-y="32"
     inkscape:window-maximized="1"
     inkscape:current-layer="svg2" />
  <rect
     id="a"
     x="1"
     y=".5"
     width="82"
     height="29"
     rx="4"
     fill="#f6c915" />
  <g
     transform="matrix(0.2329132,0,0,0.2329132,-11.469538,-43.378742)"
     fill="#000000"
     id="g2">
    <path
       d="m 104.28,271.1 c -3.571,0 -6.373,-0.466 -8.41,-1.396 -2.037,-0.93 -3.495,-2.199 -4.375,-3.809 -0.88,-1.609 -1.308,-3.457 -1.282,-5.544 0.025,-2.086 0.313,-4.311 0.868,-6.675 l 9.579,-40.05 11.69,-1.81 -10.484,43.44 c -0.202,0.905 -0.314,1.735 -0.339,2.489 -0.026,0.754 0.113,1.421 0.415,1.999 0.302,0.579 0.817,1.044 1.546,1.395 0.729,0.353 1.747,0.579 3.055,0.679 l -2.263,9.278"
       id="path1" />
    <path
       d="m 146.52,246.14 c 0,3.671 -0.604,7.03 -1.811,10.07 -1.207,3.043 -2.879,5.669 -5.01,7.881 -2.138,2.213 -4.702,3.935 -7.693,5.167 -2.992,1.231 -6.248,1.848 -9.767,1.848 -1.71,0 -3.42,-0.151 -5.129,-0.453 l -3.394,13.651 h -11.162 l 12.52,-52.19 c 2.01,-0.603 4.311,-1.143 6.901,-1.622 2.589,-0.477 5.393,-0.716 8.41,-0.716 2.815,0 5.242,0.428 7.278,1.282 2.037,0.855 3.708,2.024 5.02,3.507 1.307,1.484 2.274,3.219 2.904,5.205 0.627,1.987 0.942,4.11 0.942,6.373 m -27.378,15.461 c 0.854,0.202 1.91,0.302 3.167,0.302 1.961,0 3.746,-0.364 5.355,-1.094 1.609,-0.728 2.979,-1.747 4.111,-3.055 1.131,-1.307 2.01,-2.877 2.64,-4.714 0.628,-1.835 0.943,-3.858 0.943,-6.071 0,-2.161 -0.479,-3.998 -1.433,-5.506 -0.956,-1.508 -2.615,-2.263 -4.978,-2.263 -1.61,0 -3.118,0.151 -4.525,0.453 l -5.28,21.948"
       id="path2" />
  </g>
  <text
     x="50"
     y="20"
     fill="#1a171b"
     font-family="Helvetica Neue,Helvetica,Arial,sans-serif"
     font-size="14"
     font-weight="700"
     text-anchor="middle"
     id="text2">Donate</text>
</svg>
