<?xml version="1.0" encoding="utf-8"?><!-- Uploaded to: SVG Repo, www.svgrepo.com, Generator: SVG Repo Mixer Tools -->
<svg width="800px" height="800px" viewBox="0 0 64 64" xmlns="http://www.w3.org/2000/svg"><path d="m18.64 32.84c-.05.25-.09 5.7 0 6.08s.62.08.79-.25a35.81 35.81 0 0 0 0-5.67c-.04-.29-.77-.33-.79-.16zm34.62-10.71c.83-1 1.38-7.13-1-11.79s-7.12-5.92-13.46-6.88-13.58-1.58-19.16 1.17a17.54 17.54 0 0 0 -9.13 10.54c-1 3.17-.33 6.87.25 7.5a2.51 2.51 0 0 0 1.75.54 43.39 43.39 0 0 0 6 3.88c4.67 2.66 9.25 8.12 9.25 8.12-2 1-3.83 3.79-4.58 6.13s-.67 8.7-.67 8.7-1.71.21-2 .71a41.06 41.06 0 0 0 0 7.13c.17 1 2.79 3 12.63 3.41s13.5-1.41 14-2.25.42-5.54.21-7.25-1.54-1.66-1.54-1.66a32.08 32.08 0 0 0 -1.55-9.54 8.75 8.75 0 0 0 -6.12-6.17 23.82 23.82 0 0 1 5.37-6.42 24.62 24.62 0 0 1 6.79-4.41c.17-.05 2.13-.46 2.96-1.46zm-22.54 10.62c.21 1 .46 1.21.46 1.21l-1.88.5a23.51 23.51 0 0 0 -8.08-7.79c-5.5-3.21-7.79-4.92-7.79-4.92a4.63 4.63 0 0 1 4.25-3.25 11 11 0 0 1 6.71 1.59c.16.25.54.62.79.62s2.21 2.54 3.83 5.75 2.33 4.63 2.33 4.63a1.73 1.73 0 0 0 -.62 1.66zm3-2.91a2 2 0 0 0 -1.17.25s-1.33-3.42-3-6.71a36.47 36.47 0 0 0 -2.55-4.29 8 8 0 0 1 6.43-3.09 7.44 7.44 0 0 1 6.08 2.79s-1.87 4.21-2.79 6.71-1.88 4.59-1.88 4.59a9.23 9.23 0 0 0 -1.16-.25zm15.41-7.5a26.06 26.06 0 0 0 -8 6.2 65.13 65.13 0 0 0 -4 5.34l-1.13-.25a2.64 2.64 0 0 0 -.21-2.84c-.12-.14 3.13-7.29 4-9.5s1.92-3.45 3.54-3.45 3.59.12 4.75 1.41a4.57 4.57 0 0 1 1.01 3.09zm-35.87 8.08a104.84 104.84 0 0 0 .29 11.33c.25.63.5.17.75 0s-.12-11-.29-11.37-.5-.21-.75.04zm39.46-1.42c-.08.17.29 11.13.33 11.38s.34.21.71.08.08-11.08 0-11.42a.62.62 0 0 0 -1.04-.04zm-7.13 2.84s.17 4.54.3 4.83.83.12 1 0a36.81 36.81 0 0 0 -.08-4.79c-.13-.25-.92-.09-1.22-.04z" fill="#1d1d1b"/><path d="m32.59 31.38a1.89 1.89 0 0 1 2.63 1.12c.12 1-.21 1.17-.21 1.17a10.37 10.37 0 0 0 -1.71-.13 4.18 4.18 0 0 0 -1 .17 1.37 1.37 0 0 1 .29-2.33z" fill="#696a9b"/><path d="m11.84 20.71a12.3 12.3 0 0 1 2.16-8.37c2.87-4.38 6.58-7.13 13-7.84s14.41.92 17.66 1.92a9.46 9.46 0 0 1 6.67 6.46 17.52 17.52 0 0 1 .5 7.58c-.12.5-.17.75-.37.79s-.59.17-.55 0-.75-3.12-.75-3.12-2.5-6.25-2.79-6.38-.83.21-.66.42 2.5 5.58 2.5 5.58a12.73 12.73 0 0 0 -1.5-1 4.47 4.47 0 0 0 -.84-.29 28.47 28.47 0 0 0 -2.15-3.46c-.25 0-.88.25-.71.46a21.61 21.61 0 0 1 1.79 2.92c-.16 0-.62 0-1 0a2.57 2.57 0 0 0 -.62 0 24.16 24.16 0 0 0 -1.54-2.38c-.17 0-.71.08-.55.29s1.17 2.21 1.17 2.21a5.16 5.16 0 0 0 -1.33 0 3.23 3.23 0 0 0 -1.21.71 10.67 10.67 0 0 0 -7.83-2.58 11.58 11.58 0 0 0 -7.75 4 11.5 11.5 0 0 0 -7.88-1.63c-4.42.84-5.42 3.71-5.42 3.71z" fill="#e7413e"/><path d="m48.8 12.29s.71-.33.79-.2 1.67 4.2 1.38 4.41-.67.21-.79 0a29.1 29.1 0 0 1 -1.38-4.21z" fill="#1d1d1b"/><path d="m14.93 14.21a7.94 7.94 0 0 1 2.66-4c2-1.71 2.67-1.79 3-1.71s.46.75.46.75a8.16 8.16 0 0 0 -3.21 2.21 7 7 0 0 0 -1.58 2.79c-.17.17-1.26 0-1.33-.04z" fill="#1d1d1b"/><path d="m24.26 51s-.29-6.41.83-9.7 3.46-6.46 10.17-6.25 7.83 6.7 8.13 8a69 69 0 0 1 .75 7.95c-.13.17-2.13 1.71-10.42 1.42s-9.46-1.42-9.46-1.42z" fill="#92a0d1"/><path d="m29.43 38.09c3-2.29 12.12-1.09 11.21 6.2s-9.3 9-12.42 4.8-1.96-8.63 1.21-11z" fill="#1d1d1b"/><path d="m30 39c2.59-1.94 10.32-.92 9.54 5.29s-7.87 7.61-10.54 4.07-1.66-7.36 1-9.36z" fill="#e7413e"/><path d="m30.85 40.2c2-1.49 7.93-.71 7.33 4.06s-6.07 5.85-8.12 3.13a4.91 4.91 0 0 1 .79-7.19z" fill="#1d1d1b"/><path d="m32.51 40.67c1.14-.32 2.92-.21 3.67 1a7 7 0 0 1 .71 3.62c-.13-.08-1.38-1.12-1.59-1s-.41.25-.33.42 1.5 1.12 1.46 1.29a2.41 2.41 0 0 1 -.46.58 12.49 12.49 0 0 0 -1.88-1.58c-.25 0-.5.42-.29.58s1.54 1.42 1.46 1.59-.54.46-.67.37-1.2-1.46-1.41-1.41-.67 0-.5.29 1 1.41 1 1.41a2.91 2.91 0 0 1 -3.46-1.91 3.69 3.69 0 0 1 2.29-5.25z" fill="#fab900"/><path d="m32.34 41.71c.19-.09.71.13.59.46s-.88.37-1.09 1.33.05 1.38-.16 1.42-.67.17-.79 0a2.68 2.68 0 0 1 .16-1.92 2.73 2.73 0 0 1 1.29-1.29z" fill="#1d1d1b"/><path d="m22.39 52.09c.07-.37 3 1.79 10.58 1.75s12.33-1.67 12.42-1.42a50.11 50.11 0 0 1 .33 5.25c-.13 0-.88-2.46-1.13-2.5s-.62.12-.58.33a19.84 19.84 0 0 1 1.08 2.88c-.12.21-.91.54-.91.54s-1.42-4.75-1.79-4.79-.88 0-.84.21 1.79 4.75 1.54 4.83-.66.17-.66.17-1.67-4.25-1.84-4.3-.83.13-.79.34 1.79 4 1.63 4-.84.12-.84.12a40.86 40.86 0 0 0 -1.66-3.91c-.17 0-.84.08-.75.29l1.37 3.58s-1.12.21-1.16.08a22 22 0 0 0 -1.25-3.37c-.21 0-.75.08-.67.29a20.25 20.25 0 0 1 1 3.17 71 71 0 0 1 -7.54-.5c-4.38-.46-7.21-1.67-7.38-1.92a40 40 0 0 1 -.16-5.12z" fill="#696a9b"/></svg>