<?xml version="1.0" encoding="UTF-8" standalone="no"?>
<svg
   width="512"
   height="512"
   viewBox="0 0 512 512"
   fill="none"
   version="1.1"
   id="svg8"
   sodipodi:docname="nutrixious_logo.svg"
   inkscape:version="1.3 (0e150ed6c4, 2023-07-21)"
   xml:space="preserve"
   xmlns:inkscape="http://www.inkscape.org/namespaces/inkscape"
   xmlns:sodipodi="http://sodipodi.sourceforge.net/DTD/sodipodi-0.dtd"
   xmlns="http://www.w3.org/2000/svg"
   xmlns:svg="http://www.w3.org/2000/svg"><defs
     id="defs12"><rect
       x="78.231647"
       y="92.139495"
       width="339.0038"
       height="370.29646"
       id="rect10" /></defs><sodipodi:namedview
     id="namedview10"
     pagecolor="#ffffff"
     bordercolor="#666666"
     borderopacity="1.0"
     inkscape:pageshadow="2"
     inkscape:pageopacity="0.0"
     inkscape:pagecheckerboard="true"
     showgrid="false"
     inkscape:zoom="1"
     inkscape:cx="398.5"
     inkscape:cy="227"
     inkscape:window-width="2648"
     inkscape:window-height="874"
     inkscape:window-x="2238"
     inkscape:window-y="1025"
     inkscape:window-maximized="0"
     inkscape:current-layer="g5"
     inkscape:showpageshadow="2"
     inkscape:deskcolor="#d1d1d1" /><g
     inkscape:groupmode="layer"
     id="layer1"
     inkscape:label="fg"
     style="fill:#ff0000"><text
       xml:space="preserve"
       id="text10"
       style="font-style:normal;font-weight:normal;font-size:40px;line-height:1.25;font-family:sans-serif;white-space:pre;shape-inside:url(#rect10);display:inline;fill:#ff0000;fill-opacity:1;stroke:none" /><text
       xml:space="preserve"
       style="font-style:normal;font-variant:normal;font-weight:normal;font-stretch:normal;font-size:537.595px;line-height:1.25;font-family:Padauk;-inkscape-font-specification:Padauk;fill:#ff0000;fill-opacity:1;stroke:none;stroke-width:2.8;stroke-dasharray:none"
       x="62.153709"
       y="498.76492"
       id="text11"
       transform="scale(1.1879791,0.84176566)"><tspan
         sodipodi:role="line"
         id="tspan11"
         x="62.153709"
         y="498.76492"
         style="font-style:normal;font-variant:normal;font-weight:normal;font-stretch:normal;font-family:Padauk;-inkscape-font-specification:Padauk;stroke-width:2.8;stroke-dasharray:none" /></text><g
       transform="matrix(0.10019569,0,0,-0.10016107,-0.50097847,512.50081)"
       fill="#000000"
       stroke="none"
       id="g5"><g
         id="g1"
         style="fill:#ffffff;fill-opacity:1"><path
           style="fill:#ffffff;fill-opacity:1"
           d="m 1821.4712,4552.3047 -9.48,22.6976 c -2.75,5.875 -6.4027,12.1827 -10.7991,18.7784 -4.3965,6.5957 -9.5327,13.4865 -15.2436,20.4943 -11.4219,14.0156 -25.137,28.5412 -39.8245,42.3537 -14.6874,13.8124 -30.3365,26.9035 -45.6333,38.0442 -15.2969,11.1406 -30.2391,20.3247 -43.4891,26.3247 -8.75,3.875 -18.16,7.2824 -28.0506,10.218 -9.8906,2.9355 -20.2676,5.3982 -30.9551,7.3904 -10.6874,1.9922 -21.6857,3.518 -32.8263,4.563 -11.1407,1.0449 -22.4146,1.6027 -33.6646,1.6964 -11.25,0.094 -22.4736,-0.2891 -33.4892,-1.1504 -11.0156,-0.8614 -21.8236,-2.1967 -32.2611,-4.017 -10.4375,-1.8203 -20.5037,-4.1198 -30.0193,-6.903 -9.5157,-2.7832 -18.4946,-6.0389 -26.7446,-9.7889 -14.75,-6.5 -29.9202,-15.1274 -44.7951,-25.1743 -14.875,-10.0468 -29.4434,-21.5277 -42.9433,-33.7152 -13.5,-12.1875 -25.9441,-25.0833 -36.5691,-38.0052 -10.625,-12.9219 -19.4419,-25.8527 -25.6919,-38.1027 l -18.9863,-38.0052"
           id="path8" /><path
           style="fill:#ffffff;fill-opacity:1"
           d="m 1818.4045,4542.5157 1479.5993,7.4217 7.4625,-287.5531 -1471.5195,10.4667"
           id="path9" /><path
           style="fill:#ffffff;fill-opacity:1"
           d="m 3879.9951,4550.0036 -18.9862,38.0052 c -6.25,12.25 -15.067,25.1225 -25.6919,37.9662 -10.625,12.8437 -23.0691,25.6462 -36.5691,37.7712 -13.5,12.125 -28.0683,23.563 -42.9433,33.6567 -14.875,10.0938 -30.0452,18.8533 -44.7952,25.6033 -8.625,4 -17.8757,7.4715 -27.6022,10.4129 -9.7266,2.9414 -19.9365,5.3439 -30.4677,7.2345 -10.5313,1.8906 -21.3975,3.2668 -32.4366,4.1144 -11.039,0.8477 -22.2586,1.1625 -33.5086,0.975 -11.25,-0.1875 -22.52,-0.8911 -33.6841,-2.1059 -11.164,-1.2149 -22.2206,-2.9331 -33.0018,-5.1675 -10.7812,-2.2344 -21.3018,-4.9828 -31.4034,-8.2289 -10.1015,-3.2461 -19.7833,-6.9819 -28.9083,-11.2319 -15,-7.25 -30.7533,-16.8186 -46.2376,-27.7873 -15.4844,-10.9688 -30.7017,-23.3557 -44.6392,-36.2307 -13.9375,-12.875 -26.5801,-26.2455 -36.9395,-39.2142 -5.1796,-6.4844 -9.7993,-12.8639 -13.7036,-19.0319 -3.9043,-6.1679 -7.0987,-12.1198 -9.4737,-17.7448 l -10.9951,-29.0184"
           id="path11" /><path
           style="fill:#ffffff;fill-opacity:1"
           d="m 3901.5129,4248.6122 227.4872,1.3864 h 219.005 l 3.9961,-156.9933 c 1,-36.7499 1.8808,-65.2643 3.0214,-88.1392 1.1406,-22.875 2.5379,-40.1156 4.6004,-54.3656 2.0625,-14.25 4.7918,-25.4922 8.5574,-36.3672 3.7657,-10.875 8.5648,-21.3747 14.8148,-34.1247 4.25,-8.875 9.1045,-17.7677 14.4639,-26.5978 5.3594,-8.8301 11.2313,-17.614 17.5438,-26.2468 12.625,-17.2656 26.995,-33.9671 42.4949,-49.5296 15.5,-15.5625 32.1341,-29.986 49.2591,-42.6267 8.5625,-6.3203 17.25,-12.1885 25.9843,-17.5498 8.7344,-5.3613 17.5072,-10.1994 26.2572,-14.4494 9.375,-4.375 19.6025,-8.3364 30.4873,-11.8559 10.8847,-3.5195 22.4247,-6.6023 34.4638,-9.2429 12.039,-2.6406 24.5693,-4.8332 37.4072,-6.5715 12.8379,-1.7382 25.9779,-3.0289 39.2591,-3.8414 13.2813,-0.8125 26.7087,-1.1507 40.0779,-1.014 13.3691,0.1367 26.6838,0.7431 39.7854,1.8525 13.1015,1.1093 25.9814,2.711 38.4599,4.8164 12.4785,2.1055 24.5622,4.714 36.0622,7.839 13.125,3.5 25.9191,7.718 38.3624,12.5969 12.4434,4.8789 24.5268,10.4302 36.2377,16.6333 11.711,6.2031 23.0488,13.0607 33.9765,20.5334 10.9277,7.4726 21.4461,15.5508 31.5399,24.2383 10.0937,8.6874 19.7577,17.9786 28.9667,27.8262 9.209,9.8477 17.9643,20.2662 26.2377,31.2193 8.2735,10.9531 16.0657,22.4328 23.3528,34.4367 7.2871,12.0039 14.0813,24.5177 20.3313,37.5177 2.5,5.5 4.7057,10.5153 6.6471,15.9314 1.9414,5.416 3.6151,11.2438 5.0682,18.4078 2.9063,14.3281 4.9018,33.987 6.2768,66.2995 1.375,32.3124 2.1279,77.2788 2.5341,142.2318 0.4063,64.9531 0.4678,149.8865 0.4678,262.1364 v 261.4473 l -6.8203,46.4085 c -4.5,9.25 -7.3705,117.1316 -103.9711,232.9135 -6.6825,8.0094 -54.4845,58.69 -105.623,95.0398 -42.657,30.3211 -117.3927,61.716 -161.8198,74.4764 -8.6012,2.4705 -54.2636,14.3304 -111.5105,5.5927 -11.875,-1.8125 -21.9368,-4.4088 -32.2806,-8.112 -10.3437,-3.7031 -20.9765,-8.5113 -33.9765,-14.7613 -17.9999,-9 -35.8026,-20.0607 -52.9432,-32.7013 -17.1406,-12.6406 -33.6152,-26.8656 -48.9277,-42.1781 -15.3125,-15.3125 -29.4726,-31.7145 -41.9882,-48.7301 -12.5156,-17.0156 -23.3941,-34.6461 -32.1441,-52.3961 -6.25,-13.25 -11.0491,-24.1152 -14.8148,-35.1777 -3.7656,-11.0625 -6.4949,-22.3282 -8.5574,-36.3282 -2.0625,-14 -3.4598,-30.7431 -4.6004,-52.8056 -1.1406,-22.0625 -2.0214,-49.4379 -3.0214,-84.6878 l -3.9961,-152.9958 h -234.0147 -233.9953"
           id="path10"
           sodipodi:nodetypes="ccccssscssssscssssssscssssssscsssssccssssscssscssscccc" /><path
           style="fill:#ff4242;fill-opacity:1"
           d="m 3297.971,4554.5105 -20.9755,-456.5132 c -1.75,-43.5 -4.4913,-84.1184 -8.46,-122.9465 -3.9688,-38.8281 -9.1645,-75.8701 -15.7895,-112.1826 -6.6249,-36.3125 -14.6866,-71.9005 -24.4053,-107.8536 -9.7188,-35.9531 -21.0969,-72.2682 -34.3469,-110.0181 -18.9999,-55 -36.9998,-107.0046 -39.9998,-116.0046 -0.5,-1.25 0.1756,-3.3764 2.0663,-6.4154 1.8906,-3.0391 5.0011,-6.9887 9.3761,-11.8949 8.75,-9.8125 22.5628,-23.4337 41.8127,-41.1837 38.5,-35.5 98.7421,-87.4948 183.742,-158.4947 69.75,-58.4999 119.7014,-101.8858 156.6076,-131.5264 18.4531,-14.8203 33.6475,-26.1928 46.4326,-34.3198 6.3926,-4.0634 12.1724,-7.3141 17.4658,-9.7694 5.2935,-2.4553 10.0967,-4.1208 14.5029,-5.0114 4.4062,-0.8907 8.4133,-1.0207 12.1442,-0.39 3.731,0.6306 7.1807,2.0255 10.4483,4.1339 3.2676,2.1084 6.3601,4.9397 9.3762,8.4825 3.0161,3.5427 5.9513,7.7998 8.9278,12.7334 5.9532,9.8671 12.0564,22.4647 19.1228,37.6347 7.0664,15.1699 15.1151,32.895 24.9901,53.02 15.375,31.75 30.0099,64.862 43.8595,99.0787 13.8496,34.2168 26.9117,69.5485 39.1227,105.7282 12.2109,36.1796 23.576,73.2179 34.0349,110.8566 10.459,37.6386 20.0027,75.8703 28.5964,114.464 8.5938,38.5937 16.2307,77.5447 22.8459,116.5896 6.6153,39.0449 12.2017,78.1824 16.7251,117.1745 4.5234,38.9922 7.974,77.8421 10.2924,116.2776 2.3183,38.4355 6.2305,76.5644 3.5087,113.8401 l -29.9414,410.0622"
           id="path7" /><path
           style="fill:#ff4242;fill-opacity:1"
           d="M 1239.9889,4550.0148 1210.0052,4140 c -2.7897,-38.1481 1.1903,-77.0143 3.5478,-116.0826 2.3574,-39.0683 5.8701,-78.4351 10.4872,-117.896 4.6172,-39.4609 10.3552,-79.0144 17.1345,-118.4421 6.7793,-39.4277 14.6064,-78.7323 23.4502,-117.701 8.8437,-38.9687 18.702,-77.6086 29.5125,-115.6926 10.8106,-38.0839 22.5639,-75.6237 35.2436,-112.3971 12.6797,-36.7734 26.2699,-72.7775 40.7211,-107.8146 14.4511,-35.0371 29.7812,-69.0897 45.9062,-101.9647 15.5,-30.9999 30.9892,-60.0093 43.4891,-81.5093 6.25,-10.75 11.7458,-19.6223 16.1208,-25.9348 4.375,-6.3125 7.6262,-10.0689 9.3762,-10.5689 1.75,-0.75 10.1837,4.1849 23.9181,13.7474 13.7343,9.5625 32.7738,23.7652 55.7113,41.5151 45.8749,35.5 107.3717,85.25 173.3716,140.7499 l 239.9991,200.9849 -28.9862,68.0154 c -8.125,19.25 -15.9289,39.6479 -23.3528,60.976 -7.4238,21.3281 -14.4782,43.5765 -21.111,66.514 -6.6328,22.9375 -12.8445,46.5698 -18.5964,70.6479 -5.752,24.0781 -11.0472,48.6084 -15.8284,73.3584 -4.7813,24.75 -9.0473,49.7118 -12.768,74.6649 -3.7207,24.9531 -6.8838,49.8994 -9.4542,74.5869 -2.5703,24.6875 -4.5568,49.1128 -5.8869,73.0659 -1.3301,23.9531 -0.9807,47.4532 -2.0078,70.1799 l -18.4992,409.3179"
           id="path6" /><path
           style="fill:#ffffff;fill-opacity:1"
           d="M 1240.0051,4550.0036 H 1005.9904 771.99516 l -3.99609,152.9958 c -0.99999,35.2499 -1.86518,62.6253 -3.02143,84.6878 -1.15625,22.0625 -2.61182,38.8056 -4.73682,52.8056 -2.125,14 -4.92413,25.2657 -8.83038,36.3282 -3.90624,11.0625 -8.91905,21.9277 -15.41904,35.1777 -4.375,9.25 -9.22549,18.3525 -14.52236,27.2803 -5.29687,8.9277 -11.02894,17.6843 -17.15394,26.2078 -12.24998,17.0468 -26.07198,33.2076 -41.07197,48.1451 -14.99998,14.9374 -31.18697,28.6413 -48.18695,40.8131 -16.99998,12.1719 -34.81025,22.8008 -53.06023,31.5508 -11.99999,5.75 -22.5566,10.3835 -32.96284,14.1179 -10.40624,3.7343 -20.65218,6.5679 -32.02717,8.7554 -11.37498,2.1875 -23.88504,3.7266 -38.79127,4.8359 -14.90624,1.1094 -14.14497,1.5783 -35.36548,-1.4515 C 209.14952,5068.4071 93.931333,4958.6382 19.999755,4758.7988 L 5.0000002,4664.0583 v -269.0589 -460.0013 l 26.9979488,-54.9895 c 4.374996,-9 9.353789,-18.0055 14.834252,-26.9293 5.480464,-8.9238 11.472801,-17.766 17.89467,-26.4613 12.843737,-17.3906 27.396296,-34.1816 43.021279,-49.7441 15.62499,-15.5625 32.32129,-29.8965 49.41502,-42.4121 8.54687,-6.2579 17.1799,-12.0678 25.84786,-17.3354 8.66796,-5.2676 17.35931,-9.9929 25.9843,-14.1179 9.37499,-4.375 19.60246,-8.3364 30.48722,-11.8559 10.88475,-3.5195 22.42475,-6.6023 34.46381,-9.2429 12.03905,-2.6406 24.56938,-4.8332 37.40726,-6.5715 12.83788,-1.7382 25.99737,-3.0289 39.27861,-3.8414 13.28123,-0.8125 26.6892,-1.1507 40.05832,-1.014 13.36913,0.1367 26.68388,0.7431 39.78543,1.8525 13.10155,1.1093 25.98139,2.711 38.45989,4.8164 12.47851,2.1055 24.56226,4.714 36.06225,7.839 13.12498,3.5 25.94822,7.7316 38.4404,12.6359 12.49217,4.9042 24.65137,10.4886 36.43261,16.7308 11.78124,6.2422 23.19873,13.1367 34.1909,20.6503 10.99218,7.5137 21.5708,15.6561 31.69579,24.3749 10.12499,8.7187 19.78707,18.0078 28.96675,27.8652 9.17968,9.8574 17.86705,20.2701 26.0233,31.1998 8.15624,10.9296 15.79123,22.3842 22.84591,34.3197 7.05468,11.9355 13.54014,24.3502 19.41514,37.2252 4.24999,9.5 7.67866,18.6913 10.50678,29.1913 2.82812,10.4999 5.04907,22.3192 6.86157,37.0692 1.8125,14.7499 3.22181,32.4275 4.42494,54.6775 1.20312,22.25 2.19687,49.0749 3.19686,82.0748 l 3.99609,156.9933 h 219.00502 l 229.74032,-1.5341"
           id="path2"
           inkscape:label="path2"
           sodipodi:nodetypes="ccccssscsssscsscccccccssssscssssssscssssssscssscccc" /></g><path
         d="m 2542.7097,3139.0536 c -0.06,0.01 -1.5443,0.2396 -1.6569,0.2535 -0.1829,-0.1177 -0.9141,-0.3506 -0.8187,-0.4095 0.1503,-0.093 1.556,0.084 2.4756,0.156 z"
         style="fill:#ffffff"
         id="path16" /><path
         d="m 2543.8793,3139.1316 c -0.622,-0.074 -0.735,-0.044 -1.1696,-0.078 0.086,-0.01 2.3815,-0.361 2.3587,-0.351 -0.382,0.167 -0.8055,0.2645 -1.1891,0.429 z"
         style="fill:#ffffff"
         id="path15" /><path
         d="m 2543.8793,3139.1316 c 0.3836,-0.1645 0.8071,-0.262 1.1891,-0.429 0.023,-0.01 -2.2726,0.3432 -2.3587,0.351 -0.9196,-0.072 -2.3253,-0.2488 -2.4756,-0.156 -0.095,0.059 0.6358,0.2918 0.8187,0.4095 -2.732,0.3377 -16.9373,2.552 -40.2143,6.0254 -25.6014,3.8204 -57.748,8.4516 -83.4694,11.5634 -6.2048,0.7507 -17.2603,3.3306 -31.3644,7.371 -14.1041,4.0404 -31.2597,9.548 -49.6295,16.1849 -9.1848,3.3184 -18.6755,6.9263 -28.2455,10.7639 -9.5699,3.8375 -19.2125,7.8978 -28.7133,12.1679 -9.5009,4.27 -18.8586,8.7415 -27.8362,13.3574 -8.9775,4.6158 -17.5749,9.3793 -25.5749,14.2543 l -66.9978,40.0137 -235.0089,-197.0069 c -64.4999,-53.9999 -123.7428,-104.2444 -167.3678,-141.7443 -21.8125,-18.75 -39.7333,-34.3212 -52.4364,-45.5712 -12.7031,-11.2499 -20.189,-18.1948 -21.189,-19.6948 -0.5,-0.8125 -0.6561,-1.8563 -0.4679,-3.1395 0.1883,-1.2832 0.7128,-2.7974 1.5595,-4.5239 1.6933,-3.4532 4.6819,-7.7684 8.8304,-12.8309 4.1484,-5.0625 9.4631,-10.8628 15.8284,-17.3159 6.3652,-6.4531 13.7809,-13.5518 22.1246,-21.1768 8.3438,-7.625 17.6158,-15.7772 27.6997,-24.3553 10.084,-8.5781 20.9676,-17.5778 32.5535,-26.8903 23.1719,-18.625 49.1114,-38.503 76.8613,-58.753 l 82.0075,-60.001 v -159.0017 -159.0018 h 609.9977 609.9977 l 0.9942,162.9992 v 162.0047 l 67.0173,42.9972 c 10,6.3749 20.8375,13.8161 32.1441,21.9763 11.3066,8.1601 23.0801,17.0396 34.9316,26.3053 11.8516,9.2656 23.7842,18.9148 35.419,28.6062 11.6348,9.6914 22.9694,19.4223 33.6256,28.8598 10.6562,9.4375 20.6355,18.5814 29.5516,27.0853 8.916,8.5039 16.7632,16.3727 23.1773,23.2633 6.414,6.8906 11.3914,12.7962 14.5418,17.3938 1.5752,2.2989 2.6974,4.2714 3.3138,5.8695 0.6165,1.5981 0.7299,2.834 0.2924,3.6465 -0.75,1.25 -8.1933,7.9887 -20.9745,19.1293 -12.7813,11.1406 -30.9158,26.6807 -53.0408,45.4931 -44.2499,37.625 -104.4994,88.3629 -169.9993,143.3629 l -237.9913,199.0154 -29.0058,-22.0154 c -11.25,-8.5 -22.8147,-16.5508 -34.8147,-24.2383 -12,-7.6875 -24.4267,-15.0153 -37.4267,-22.0153 -13,-7 -26.5686,-13.6863 -40.8186,-20.1238 -14.25,-6.4375 -29.1816,-12.6224 -44.9316,-18.6224 -2.8115,-1.0588 -7.7612,-2.2489 -14.3664,-3.5294 -6.6052,-1.2806 -14.8715,-2.6448 -24.3079,-4.0755 -18.8728,-2.8615 -42.4394,-5.9559 -66.8614,-8.9894 -48.8439,-6.0671 -101.088,-11.9037 -125.9254,-15.2294 -0.415,-0.056 -0.3105,0 -0.6628,-0.039 z"
         style="fill:#ff4242;fill-opacity:1"
         id="path14" /><path
         d="m 2542.0275,3139.7946 c -0.5745,-0.2148 -0.7569,-0.3474 -0.9747,-0.4875 0.1126,-0.014 1.5965,-0.2481 1.6569,-0.2535 0.4346,0.034 0.5476,0 1.1696,0.078 -0.5968,0.256 -1.2512,0.4128 -1.8518,0.663 z"
         style="fill:#ffffff"
         id="path13" /><path
         d="m 2530.0392,3977.3908 c -14.3437,-0.2344 -27.6604,-0.837 -39.7854,-1.7745 -12.125,-0.9375 -23.0572,-2.2126 -32.651,-3.822 -9.5937,-1.6093 -17.8503,-3.5414 -24.6003,-5.7914 -9.3749,-3.0625 -18.6285,-6.4775 -27.7386,-10.2179 -9.1101,-3.7405 -18.0851,-7.8037 -26.9005,-12.1874 -8.8154,-4.3838 -17.4739,-9.0865 -25.9648,-14.0789 -8.491,-4.9925 -16.8145,-10.287 -24.9512,-15.8534 -8.1367,-5.5664 -16.0874,-11.4052 -23.8401,-17.5109 -7.7527,-6.1057 -15.2926,-12.48 -22.6315,-19.0903 -7.3388,-6.6104 -14.4692,-13.453 -21.3644,-20.5333 -6.8953,-7.0804 -13.5586,-14.3827 -19.9804,-21.8984 -6.4219,-7.5156 -12.5998,-15.2495 -18.5185,-23.1658 -5.9187,-7.9162 -11.5927,-16.0146 -16.9785,-24.2968 -5.3857,-8.2822 -10.4986,-16.7558 -15.3216,-25.3693 -4.823,-8.6135 -9.3562,-17.3756 -13.5867,-26.2858 -4.2304,-8.9101 -8.1461,-17.9521 -11.7543,-27.1242 -3.6082,-9.1721 -6.9075,-18.4659 -9.8635,-27.8653 -2.9561,-9.3994 -5.5621,-18.9167 -7.8362,-28.5088 -2.2742,-9.592 -4.2075,-19.2658 -5.77,-29.0157 -1.8125,-11.125 -3.1426,-22.3137 -4.0156,-33.5203 -0.873,-11.2066 -1.2894,-22.4314 -1.2475,-33.6567 0.042,-11.2253 0.5297,-22.4366 1.4619,-33.6177 0.9323,-11.1812 2.315,-22.3291 4.1131,-33.4033 1.7981,-11.0741 4.0077,-22.0895 6.6471,-32.9937 2.6395,-10.9042 5.7056,-21.6983 9.1618,-32.3697 3.4562,-10.6714 7.311,-21.2141 11.5594,-31.5898 4.2484,-10.3757 8.8825,-20.5781 13.8986,-30.5952 5.0161,-10.0171 10.4201,-19.8491 16.1793,-29.4448 5.7592,-9.5957 11.8847,-18.9684 18.3625,-28.0797 6.4777,-9.1114 13.2959,-17.9557 20.4677,-26.5198 7.1718,-8.5642 14.6928,-16.8498 22.5341,-24.8038 7.8412,-7.9541 16.0166,-15.5728 24.5028,-22.8538 8.4862,-7.2811 17.287,-14.2222 26.3937,-20.7674 9.1066,-6.5452 18.504,-12.7004 28.2065,-18.4468 9.7025,-5.7465 19.7066,-11.0856 29.9804,-15.9704 3.6441,-1.7326 8.1608,-3.1629 13.3917,-4.3875 5.231,-1.2245 11.1651,-2.2364 17.6803,-3.1589 13.0303,-1.8452 28.3261,-3.2937 44.6782,-5.1675 8.176,-0.9369 16.6324,-1.9838 25.1851,-3.237 8.5526,-1.2531 17.2016,-2.7094 25.8283,-4.4849 8.6268,-1.7756 17.2157,-3.8724 25.614,-6.3765 7.356,-2.1933 14.4794,-4.8604 21.4424,-7.7609 0.2665,0.1 0.1114,0.1198 0.4483,0.234 3.3455,1.134 10.0578,2.9578 18.1286,5.0114 16.1417,4.1074 37.7075,9.1067 48.6548,11.2709 5.6343,1.1139 11.2502,1.9054 16.8615,2.457 5.6114,0.5517 11.2167,0.8654 16.8226,1.0725 11.2117,0.4143 22.4285,0.359 33.723,0.702 5.6473,0.1715 11.3234,0.4557 17.0175,0.936 5.6942,0.4804 11.4149,1.1575 17.1735,2.1645 5.7585,1.007 11.5474,2.3436 17.3878,4.095 5.8404,1.7513 11.7405,3.9164 17.6802,6.6299 10.2214,4.6695 20.1774,9.8156 29.883,15.4049 9.7056,5.5892 19.1456,11.6177 28.304,18.0568 9.1583,6.4392 18.048,13.2947 26.6275,20.5139 8.5796,7.2191 16.8455,14.8075 24.8148,22.7368 7.9692,7.9293 15.6354,16.1953 22.9628,24.7648 7.3275,8.5695 14.3205,17.4384 20.9746,26.5783 6.6541,9.1399 12.9591,18.5564 18.9083,28.1967 5.9493,9.6404 11.5512,19.5103 16.7641,29.5813 5.2129,10.071 10.0383,20.3391 14.4834,30.7707 4.445,10.4317 8.4985,21.0233 12.1442,31.7458 3.6456,10.7225 6.8928,21.5822 9.7075,32.5257 2.8148,10.9435 5.2017,21.9772 7.154,33.0718 1.9524,11.0945 3.464,22.247 4.5224,33.4227 1.0584,11.1757 1.6604,22.3722 1.7934,33.5592 0.1329,11.187 -0.1896,22.3723 -1.0137,33.5007 -0.824,11.1285 -2.1446,22.2083 -3.9571,33.2083 -1.375,8.5625 -3.014,17.0593 -4.9122,25.4863 -1.8982,8.427 -4.047,16.7868 -6.4522,25.0573 -2.4053,8.2705 -5.0765,16.4572 -7.9727,24.5503 -2.8963,8.093 -6.0246,16.0902 -9.3957,23.9848 -3.3711,7.8945 -6.9693,15.6857 -10.7992,23.3608 -3.8298,7.675 -7.8912,15.2242 -12.1637,22.6588 -4.2724,7.4346 -8.7707,14.7447 -13.4697,21.9178 -4.699,7.1731 -9.6079,14.2082 -14.7173,21.0988 -5.1094,6.8907 -10.4027,13.6342 -15.9064,20.2214 -5.5036,6.5871 -11.2136,13.0226 -17.0954,19.2853 -5.8819,6.2627 -11.9432,12.3541 -18.1871,18.2714 -6.2439,5.9172 -12.6693,11.6676 -19.2592,17.2183 -6.5898,5.5508 -13.3531,10.9046 -20.2728,16.0679 -6.9197,5.1633 -13.9946,10.1235 -21.228,14.8784 -7.2334,4.7549 -14.6132,9.3049 -22.1442,13.6304 -7.531,4.3254 -15.2088,8.4294 -23.0213,12.3044 -15,7.25 -27.3148,12.9485 -38.7523,17.4328 -5.7188,2.2422 -11.2173,4.1644 -16.7251,5.85 -5.5078,1.6855 -11.0336,3.1297 -16.7836,4.3484 -5.75,1.2188 -11.7222,2.2197 -18.1675,3.0615 -6.4453,0.8418 -13.3614,1.5123 -20.9551,2.067 -15.1875,1.1094 -33.1139,1.7425 -55.6138,2.2425 -16.25,0.5 -31.621,0.6244 -45.9648,0.39 z"
         style="fill:#ffffff;fill-opacity:1"
         id="path12" /><path
         d="m 1892,1968 c -16,-29 -48,-73 -72,-96 -42,-44 -42,-44 -23,-65 11,-12 104,-120 207,-239 103,-120 189,-218 192,-218 3,0 47,27 98,60 134,87 177,103 266,104 89,0 135,-19 279,-112 l 94,-60 152,176 c 84,98 177,206 207,241 l 55,64 -43,43 c -24,23 -57,68 -74,98 l -32,56 h -638 -638 z"
         id="path3"
         style="fill:#ff4242;fill-opacity:1" /><path
         d="m 1395,1582 c -127,-83 -176,-130 -206,-196 -25,-58 -152,-1008 -146,-1096 5,-80 39,-152 97,-204 67,-60 122,-81 215,-81 94,1 150,23 216,87 76,74 82,99 144,563 31,231 57,420 58,421 1,1 39,25 84,53 l 82,53 -206,239 c -113,131 -209,239 -212,239 -3,0 -60,-35 -126,-78 z"
         id="path4"
         style="fill:#ff4242;fill-opacity:1" /><path
         d="m 3395,1419 c -114,-132 -205,-242 -203,-243 1,-2 37,-25 78,-51 41,-26 76,-48 77,-49 1,-1 27,-190 58,-421 62,-464 68,-489 144,-563 66,-64 122,-86 216,-87 62,0 91,5 130,23 105,48 175,148 182,262 6,88 -121,1038 -146,1096 -29,65 -79,113 -196,189 -60,39 -115,74 -121,78 -7,4 -97,-92 -219,-234 z"
         id="path5"
         style="fill:#ff4242;fill-opacity:1" /></g></g></svg>
