<?xml version="1.0" encoding="utf-8"?>
<!-- Uploaded to: SVG Repo, www.svgrepo.com, Generator: SVG Repo Mixer Tools -->
<svg width="800px" height="800px" viewBox="0 0 1024 1024" class="icon"  version="1.1" xmlns="http://www.w3.org/2000/svg"><path d="M156.309 960c-3.136 0-6.305-0.804-9.15-2.404-5.869-3.32-9.517-9.554-9.517-16.264V82.659c0-6.709 3.648-12.944 9.517-16.259 5.869-3.281 13.089-3.211 18.811 0.291l711.345 429.281c5.615 3.338 9.042 9.408 9.042 15.953 0 6.563-3.427 12.629-9.042 15.967L165.971 957.357c-2.953 1.769-6.305 2.643-9.662 2.643z" fill="#0DB14B" /><path d="M877.316 495.972L165.971 66.693c-3.148-1.928-6.744-2.717-10.325-2.577l607.633 366.692c5.615 3.338 9.042 9.406 9.042 15.953 0 6.563-3.427 12.632-9.042 15.968L137.642 840.447v100.888c0 6.705 3.648 12.941 9.517 16.26a18.684 18.684 0 0 0 9.151 2.406c3.356 0 6.708-0.875 9.66-2.645l711.345-429.462c5.615-3.338 9.042-9.407 9.042-15.97 0.001-6.545-3.426-12.616-9.041-15.952z" fill="#070707" /></svg>