<?xml version="1.0" encoding="iso-8859-1"?>
<!-- Uploaded to: SVG Repo, www.svgrepo.com, Generator: SVG Repo Mixer Tools -->
<svg height="800px" width="800px" version="1.1" id="Layer_1" xmlns="http://www.w3.org/2000/svg" xmlns:xlink="http://www.w3.org/1999/xlink" 
	 viewBox="0 0 512 512" xml:space="preserve">
<path style="fill:#8E959F;" d="M230.576,370.096l-10.065,30.196c-1.883,5.648-9.294,7.407-13.513,3.19l-98.481-98.481
	c-4.217-4.217-2.453-11.63,3.19-13.512l30.196-10.065L230.576,370.096z"/>
<polygon style="fill:#68727E;" points="230.576,370.096 223.505,391.313 120.687,288.495 141.904,281.423 "/>
<g>
	<path style="fill:#FF8C78;" d="M128.513,275.116c-0.02-0.01-97.869-48.593-97.869-48.593c-4.91-2.438-6.024-9.195-2.141-13.08
		c27.39-27.39,65.966-43.554,111.558-46.745c18.959-1.327,36.69-0.26,51.182,1.644L128.513,275.116z"/>
	<path style="fill:#FF8C78;" d="M345.301,371.94c-3.191,45.591-19.356,84.168-46.745,111.557c-3.883,3.882-10.641,2.769-13.08-2.141
		l-47.731-96.126l104.587-73.339C344.997,327.687,346.916,348.91,345.301,371.94z"/>
</g>
<path style="fill:#ECEDEF;" d="M492.569,14.595c2.243,0.826,4.011,2.594,4.835,4.836c43.508,118.093-21.261,200.308-51.126,230.174
	c-35.443,35.443-139.565,103.73-197.987,137.384c-3.197,1.842-7.233,1.309-9.844-1.301L126.311,273.552
	c-2.579-2.58-3.123-6.679-1.3-9.844c33.655-58.424,101.943-162.546,137.385-197.986C292.261,35.856,374.475-28.912,492.569,14.595z"
	/>
<g>
	<path style="fill:#FF8C78;" d="M492.569,14.595c2.243,0.826,4.011,2.594,4.835,4.836c29.085,78.947,9.78,141.853-15.137,183.811
		L308.758,29.732C350.715,4.816,413.621-14.49,492.569,14.595z"/>
	<path style="fill:#FF8C78;" d="M215.647,123.769l172.584,172.584c-11.574,8.344-23.932,16.938-36.546,25.474L190.174,160.316
		C198.709,147.701,207.302,135.343,215.647,123.769z"/>
</g>
<path style="fill:#ECEDEF;" d="M482.267,203.241c-12.355,20.805-26.09,36.463-35.989,46.363
	c-12.489,12.489-33.509,29.056-58.047,46.749L215.647,123.769c17.692-24.538,34.26-45.559,46.748-58.047
	c9.9-9.9,25.559-23.634,46.363-35.99L482.267,203.241z"/>
<path style="fill:#DF7A6E;" d="M441.211,70.79c29.761,29.761,36.02,74.24,18.819,110.216L330.995,51.969
	C366.971,34.769,411.449,41.029,441.211,70.79z"/>
<path style="fill:#D9DCDF;" d="M304.391,207.608c-18.86-18.861-28.29-43.635-28.29-68.409s9.43-49.549,28.29-68.409
	c7.96-7.96,16.982-14.22,26.603-18.82l129.036,129.036c-4.6,9.622-10.859,18.643-18.819,26.602
	C403.489,245.328,342.113,245.328,304.391,207.608z"/>
<path style="fill:#8E959F;" d="M433.968,78.033c33.726,33.727,33.726,88.605,0,122.332c-33.728,33.727-88.606,33.727-122.334,0
	c-16.863-16.864-25.294-39.014-25.294-61.166s8.431-44.302,25.294-61.166C345.363,44.306,400.24,44.306,433.968,78.033z"/>
<path style="fill:#F7B14D;" d="M415.502,96.499c23.545,23.546,23.545,61.856,0,85.4c-23.546,23.546-61.858,23.546-85.403,0
	c-11.773-11.774-17.658-27.234-17.658-42.7c0-15.461,5.888-30.929,17.658-42.7c11.405-11.406,26.571-17.688,42.701-17.688
	S404.097,85.092,415.502,96.499z"/>
<path style="fill:#FFC44F;" d="M404.264,107.733c17.347,17.348,17.347,45.575,0,62.923c-17.348,17.348-45.576,17.348-62.924,0
	c-8.674-8.675-13.011-20.066-13.011-31.462c0-11.392,4.338-22.789,13.011-31.462c8.403-8.404,19.577-13.032,31.463-13.032
	C384.686,94.701,395.861,99.33,404.264,107.733z"/>
<circle style="fill:#FFEBC8;" cx="386.809" cy="142.602" r="13.057"/>
<path style="fill:#F7B14D;" d="M130.877,381.123c26.938,26.938,26.938,70.771,0,97.712C105.669,504.044,18.614,511.24,8.77,511.978
	c-4.908,0.368-9.106-3.845-8.748-8.748c0.739-9.843,7.934-96.898,33.143-122.106c13.05-13.05,30.401-20.237,48.857-20.237
	C100.476,360.886,117.826,368.073,130.877,381.123z"/>
<path style="fill:#FFEBC8;" d="M118.567,393.434c13.363,13.364,13.361,35.108-0.001,48.47
	c-11.143,11.143-56.196,24.202-65.114,26.707c-6.018,1.689-11.751-4.041-10.064-10.064c2.505-8.919,15.564-53.972,26.707-65.114
	c6.473-6.474,15.081-10.039,24.236-10.039S112.093,386.96,118.567,393.434z"/>
<g>
	<path style="fill:#DF7A6E;" d="M492.569,14.595c2.243,0.826,4.011,2.594,4.835,4.836c0.641,1.741,1.255,3.473,1.85,5.198
		c-29.588-0.761-99.388-1.282-134.208,9.165c-12.194,3.658-24.388,9.027-36.437,15.79l-19.851-19.851
		C350.715,4.816,413.621-14.49,492.569,14.595z"/>
	<path style="fill:#DF7A6E;" d="M215.647,123.769l13.937,13.937c-9.344,11.532-18.174,23.494-26.403,35.617l-13.007-13.007
		C198.709,147.701,207.302,135.343,215.647,123.769z"/>
</g>
<g>
	<path style="fill:#D9DCDF;" d="M203.181,173.323c-19.794,29.158-36.038,59.275-47.043,86.79
		c-4.435,11.087-7.763,22.278-10.259,33.008l-19.567-19.567c-1.571-1.572-2.389-3.66-2.389-5.773c0-1.394,0.357-2.799,1.089-4.07
		c16.204-28.129,40.435-66.846,65.163-103.394L203.181,173.323z"/>
	<path style="fill:#D9DCDF;" d="M328.609,49.583c-35.475,19.911-69.703,51.932-99.025,88.123l-13.937-13.937
		c17.692-24.538,34.26-45.559,46.748-58.047c9.9-9.9,25.559-23.634,46.363-35.99L328.609,49.583z"/>
</g>
</svg>